<svg width="27" height="27" viewBox="0 0 27 27" fill="none" xmlns="http://www.w3.org/2000/svg">
<path d="M9.48883 4.52074C11.1695 1.50691 12.0092 0 13.2654 0C14.5216 0 15.3613 1.50691 17.042 4.52074L17.4771 5.30073C17.9546 6.15765 18.1934 6.58612 18.5648 6.86866C18.9362 7.15121 19.4005 7.256 20.3291 7.46559L21.1727 7.65661C24.4359 8.39548 26.0662 8.76425 26.4549 10.0125C26.8422 11.2594 25.7306 12.5607 23.506 15.162L22.9303 15.8345C22.2989 16.5734 21.9819 16.9435 21.84 17.3998C21.698 17.8575 21.7458 18.3509 21.8413 19.3365L21.9288 20.2346C22.2644 23.706 22.4329 25.4411 21.4168 26.2118C20.4007 26.9825 18.8726 26.2795 15.8189 24.8734L15.027 24.5099C14.1595 24.1093 13.7257 23.9103 13.2654 23.9103C12.8051 23.9103 12.3713 24.1093 11.5038 24.5099L10.7132 24.8734C7.65825 26.2795 6.13011 26.9825 5.11533 26.2131C4.0979 25.4411 4.26636 23.706 4.60197 20.2346L4.68952 19.3378C4.78503 18.3509 4.83278 17.8575 4.68952 17.4011C4.54891 16.9435 4.23188 16.5734 3.60046 15.8359L3.02475 15.162C0.800197 12.562 -0.311418 11.2607 0.0759227 10.0125C0.463263 8.76425 2.0962 8.39415 5.35941 7.65661L6.20307 7.46559C7.1303 7.256 7.59325 7.15121 7.966 6.86866C8.33875 6.58612 8.57619 6.15765 9.05374 5.30073L9.48883 4.52074Z" fill="#A8CF45"/>
</svg>
