<svg width="79" height="79" viewBox="0 0 79 79" fill="none" xmlns="http://www.w3.org/2000/svg">
<path d="M27.654 21.1472C27.654 19.6519 27.9485 18.1712 28.5207 16.7896C29.093 15.4081 29.9317 14.1528 30.9891 13.0954C32.0465 12.038 33.3018 11.1993 34.6833 10.627C36.0649 10.0548 37.5456 9.76025 39.0409 9.76025C40.5363 9.76025 42.017 10.0548 43.3986 10.627C44.7801 11.1993 46.0354 12.038 47.0928 13.0954C48.1501 14.1528 48.9889 15.4081 49.5611 16.7896C50.1334 18.1712 50.4279 19.6519 50.4279 21.1472C50.4279 24.1673 49.2282 27.0636 47.0928 29.1991C44.9573 31.3345 42.061 32.5342 39.0409 32.5342C36.0209 32.5342 33.1246 31.3345 30.9891 29.1991C28.8537 27.0636 27.654 24.1673 27.654 21.1472ZM14.6403 35.7877C16.7974 35.7877 18.8662 34.9307 20.3916 33.4054C21.9169 31.88 22.7738 29.8112 22.7738 27.6541C22.7738 25.4969 21.9169 23.4281 20.3916 21.9028C18.8662 20.3775 16.7974 19.5205 14.6403 19.5205C12.4831 19.5205 10.4143 20.3775 8.88896 21.9028C7.36362 23.4281 6.5067 25.4969 6.5067 27.6541C6.5067 29.8112 7.36362 31.88 8.88896 33.4054C10.4143 34.9307 12.4831 35.7877 14.6403 35.7877ZM71.5752 27.6541C71.5752 29.8112 70.7183 31.88 69.1929 33.4054C67.6676 34.9307 65.5988 35.7877 63.4416 35.7877C61.2845 35.7877 59.2157 34.9307 57.6903 33.4054C56.165 31.88 55.3081 29.8112 55.3081 27.6541C55.3081 25.4969 56.165 23.4281 57.6903 21.9028C59.2157 20.3775 61.2845 19.5205 63.4416 19.5205C65.5988 19.5205 67.6676 20.3775 69.1929 21.9028C70.7183 23.4281 71.5752 25.4969 71.5752 27.6541ZM34.1608 39.0411C29.6711 39.0411 26.0272 42.6849 26.0272 47.1746V55.3082C26.0272 58.7596 27.3983 62.0697 29.8389 64.5103C32.2794 66.9508 35.5895 68.3219 39.0409 68.3219C42.4924 68.3219 45.8025 66.9508 48.243 64.5103C50.6836 62.0697 52.0546 58.7596 52.0546 55.3082V47.1746C52.0546 42.6849 48.4108 39.0411 43.9211 39.0411H34.1608ZM19.5204 47.1746C19.5204 45.2942 19.8718 43.4983 20.5225 41.852L12.5125 43.9993C10.4301 44.5575 8.65446 45.9197 7.57588 47.7865C6.4973 49.6532 6.20401 51.8719 6.76047 53.9548L8.02279 58.6722C8.46524 60.3232 9.22859 61.8709 10.2692 63.2268C11.3099 64.5827 12.6075 65.7204 14.0878 66.5748C15.5682 67.4292 17.2024 67.9836 18.8971 68.2063C20.5917 68.429 22.3137 68.3158 23.9646 67.8729L24.0752 67.8404C21.133 64.3271 19.5206 59.8907 19.5204 55.3082V47.1746ZM58.5615 55.3082C58.5615 60.0777 56.8502 64.4503 54.0067 67.8469L54.1108 67.8729C57.444 68.7653 60.9952 68.2974 63.9835 66.572C66.9717 64.8466 69.1524 62.0051 70.0461 58.6722L71.3084 53.9548C71.8649 51.8719 71.5716 49.6532 70.493 47.7865C69.4144 45.9197 67.6388 44.5575 65.5564 43.9993L57.5659 41.852C58.2101 43.5048 58.5615 45.3007 58.5615 47.1746V55.3082Z" fill="white" fill-opacity="0.7"/>
</svg>
