<svg width="79" height="79" viewBox="0 0 79 79" fill="none" xmlns="http://www.w3.org/2000/svg">
<path d="M68.3221 29.2808C68.3221 29.2808 68.3221 32.0478 67.1875 35.686L54.5431 23.044C53.8573 22.3574 52.927 21.9712 51.9566 21.9704H40.725C39.9065 21.9709 39.1118 22.2459 38.4679 22.7512L34.0343 26.221C33.73 26.4594 33.3817 26.6354 33.0093 26.7391C32.6369 26.8427 32.2477 26.8719 31.864 26.825C31.4803 26.7781 31.1097 26.656 30.7732 26.4657C30.4368 26.2754 30.1411 26.0206 29.9033 25.7159C29.4226 25.0997 29.2059 24.318 29.3006 23.5423C29.3952 22.7666 29.7936 22.06 30.4083 21.5775L45.5368 9.76025H48.8016C53.9788 9.76025 58.9439 11.8169 62.6047 15.4777C66.2655 19.1385 68.3221 24.1036 68.3221 29.2808ZM18.0177 37.4062C17.7736 37.1615 17.4836 36.9674 17.1643 36.8349C16.845 36.7024 16.5028 36.6342 16.1571 36.6342C15.8115 36.6342 15.4692 36.7024 15.1499 36.8349C14.8307 36.9674 14.5407 37.1615 14.2966 37.4062L10.5291 41.1883C10.0353 41.6841 9.75806 42.3553 9.75806 43.055C9.75806 43.7547 10.0353 44.4259 10.5291 44.9216C10.7732 45.1664 11.0632 45.3605 11.3825 45.493C11.7017 45.6255 12.044 45.6937 12.3897 45.6937C12.7353 45.6937 13.0776 45.6255 13.3968 45.493C13.7161 45.3605 14.0061 45.1664 14.2502 44.9216L18.0177 41.1395C18.5113 40.6442 18.7885 39.9734 18.7885 39.2741C18.7885 38.5748 18.5113 37.904 18.0177 37.4087M21.912 42.506C22.156 42.2606 22.4461 42.0659 22.7656 41.933C23.0851 41.8001 23.4278 41.7317 23.7738 41.7317C24.1198 41.7317 24.4625 41.8001 24.782 41.933C25.1015 42.0659 25.3916 42.2606 25.6356 42.506C26.1286 43.0016 26.4054 43.6723 26.4054 44.3714C26.4054 45.0705 26.1286 45.7412 25.6356 46.2368L21.8632 50.0116C21.6193 50.2566 21.3293 50.451 21.0101 50.5837C20.6908 50.7164 20.3484 50.7847 20.0027 50.7847C19.6569 50.7847 19.3146 50.7164 18.9953 50.5837C18.676 50.451 18.3861 50.2566 18.1421 50.0116C17.6491 49.516 17.3723 48.8453 17.3723 48.1462C17.3723 47.4471 17.6491 46.7764 18.1421 46.2808L21.912 42.506ZM31.9578 48.8428C31.7137 48.5981 31.4237 48.4039 31.1044 48.2715C30.7852 48.139 30.4429 48.0708 30.0972 48.0708C29.7516 48.0708 29.4093 48.139 29.0901 48.2715C28.7708 48.4039 28.4808 48.5981 28.2367 48.8428L24.4692 52.6201C23.9748 53.1155 23.6972 53.7868 23.6972 54.4867C23.6972 55.1866 23.9748 55.8579 24.4692 56.3534C24.7132 56.5984 25.0031 56.7928 25.3224 56.9254C25.6417 57.0581 25.984 57.1264 26.3298 57.1264C26.6755 57.1264 27.0179 57.0581 27.3371 56.9254C27.6564 56.7928 27.9464 56.5984 28.1903 56.3534L31.9578 52.5737C32.4516 52.078 32.7288 51.4068 32.7288 50.707C32.7288 50.0073 32.4516 49.3386 31.9578 48.8428ZM38.2776 55.1748C38.0336 54.9294 37.7435 54.7347 37.424 54.6018C37.1045 54.469 36.7618 54.4005 36.4158 54.4005C36.0698 54.4005 35.7271 54.469 35.4076 54.6018C35.0881 54.7347 34.798 54.9294 34.554 55.1748L30.7866 58.9545C30.2935 59.4501 30.0167 60.1208 30.0167 60.8199C30.0167 61.519 30.2935 62.1897 30.7866 62.6853C31.0305 62.9304 31.3204 63.1248 31.6397 63.2574C31.959 63.3901 32.3014 63.4584 32.6471 63.4584C32.9929 63.4584 33.3352 63.3901 33.6545 63.2574C33.9738 63.1248 34.2637 62.9304 34.5077 62.6853L38.2751 58.9057C38.7688 58.4104 39.046 57.7395 39.046 57.0402C39.046 56.3409 38.7688 55.6701 38.2751 55.1748M36.6964 10.4728C35.4111 10.0931 34.088 9.85582 32.7508 9.76513L32.5312 9.76025H31.7211C26.5439 9.76025 21.5788 11.8169 17.918 15.4777C14.2572 19.1385 12.2006 24.1036 12.2006 29.2808V34.3732C13.4068 33.3918 14.9346 32.8936 16.4874 32.9752C18.0403 33.0568 19.5075 33.7124 20.6042 34.8149C21.5631 35.7787 22.1487 36.9768 22.3586 38.2261C23.2843 38.014 24.246 38.0142 25.1716 38.2265C26.0973 38.4388 26.9629 38.8578 27.7037 39.4521C28.4445 40.0464 29.0412 40.8006 29.4491 41.6583C29.8571 42.5159 30.0657 43.4547 30.0594 44.4043C30.8919 44.4005 31.7169 44.5617 32.4866 44.8788C33.2563 45.1959 33.9556 45.6625 34.5438 46.2516C35.132 46.8407 35.5975 47.5406 35.9134 48.3108C36.2293 49.0811 36.3892 49.9063 36.3841 50.7388C37.2146 50.7347 38.0377 50.8957 38.8055 51.2124C39.5733 51.5291 40.2705 51.9951 40.8567 52.5835C42.0353 53.7678 42.697 55.3706 42.697 57.0415C42.697 58.7123 42.0353 60.3152 40.8567 61.4995L40.3077 62.0509L43.4163 65.1352C43.9093 65.6202 44.5731 65.8921 45.2647 65.8921C45.9563 65.8921 46.6201 65.6202 47.1131 65.1352C48.1232 64.1347 48.1257 62.5145 47.1179 61.5117C46.7717 61.1684 46.576 60.7016 46.574 60.214C46.5719 59.7264 46.7636 59.258 47.107 58.9118C47.4503 58.5655 47.9171 58.3699 48.4046 58.3678C48.8922 58.3658 49.3606 58.5575 49.7068 58.9008C50.1998 59.3858 50.8636 59.6577 51.5552 59.6577C52.2468 59.6577 52.9106 59.3858 53.4035 58.9008C53.6435 58.6638 53.834 58.3816 53.9641 58.0705C54.0943 57.7594 54.1614 57.4256 54.1616 57.0883C54.1618 56.7511 54.0952 56.4172 53.9655 56.1059C53.8358 55.7946 53.6456 55.5121 53.406 55.2749C53.0816 54.9271 52.9044 54.4673 52.9117 53.9918C52.9189 53.5163 53.11 53.0621 53.4449 52.7244C53.7797 52.3867 54.2323 52.1918 54.7077 52.1805C55.1831 52.1693 55.6444 52.3425 55.9949 52.664C56.4884 53.1476 57.1521 53.4182 57.843 53.4172C58.534 53.4163 59.197 53.1441 59.6892 52.6591C60.7238 51.6343 60.7189 49.9701 59.7306 48.9868L59.7233 48.9819L54.2259 43.482C53.9026 43.1351 53.7266 42.6762 53.735 42.2021C53.7433 41.728 53.9354 41.2757 54.2707 40.9404C54.606 40.6051 55.0583 40.413 55.5325 40.4046C56.0066 40.3963 56.4654 40.5723 56.8123 40.8955L63.2444 47.3202C64.5303 48.5964 66.6507 48.6086 67.7658 47.5032C68.876 46.4028 68.8663 44.3141 67.5925 43.0477L67.5877 43.0428L51.3954 26.8529H41.1471L37.0429 30.0641C36.2339 30.6971 35.3081 31.1646 34.3183 31.4398C33.3286 31.7149 32.2944 31.7924 31.2747 31.6678C30.255 31.5432 29.2699 31.2189 28.3756 30.7134C27.4813 30.208 26.6953 29.5313 26.0626 28.722C24.7841 27.0863 24.2074 25.01 24.459 22.9492C24.7107 20.8885 25.7701 19.012 27.4046 17.732L36.6964 10.4728Z" fill="white" fill-opacity="0.7"/>
</svg>
