<svg width="79" height="79" viewBox="0 0 79 79" fill="none" xmlns="http://www.w3.org/2000/svg">
<path fill-rule="evenodd" clip-rule="evenodd" d="M39.0411 6.50684C21.0724 6.50684 6.50684 21.0724 6.50684 39.0411C6.50684 45.1901 8.21488 50.9486 11.1853 55.8548L8.28321 65.7192C8.11658 66.2855 8.10562 66.8863 8.25147 67.4584C8.39732 68.0305 8.69459 68.5527 9.11205 68.9701C9.5295 69.3876 10.0517 69.6849 10.6238 69.8307C11.1958 69.9766 11.7966 69.9656 12.363 69.799L22.2274 66.8969C27.2986 69.9647 33.1141 71.5829 39.0411 71.5753C57.0098 71.5753 71.5753 57.0097 71.5753 39.0411C71.5753 21.0724 57.0098 6.50684 39.0411 6.50684ZM31.6818 46.4036C38.2635 52.982 44.5459 53.8507 46.7647 53.932C50.1385 54.0556 53.4245 51.4789 54.7031 48.489C54.8631 48.1168 54.921 47.7086 54.8706 47.3066C54.8203 46.9045 54.6636 46.5232 54.4168 46.2019C52.6339 43.9245 50.2231 42.288 47.8676 40.6613C47.3761 40.3204 46.7715 40.1835 46.1811 40.2794C45.5907 40.3753 45.0605 40.6965 44.702 41.1753L42.75 44.1522C42.6468 44.3116 42.4869 44.4259 42.3027 44.4718C42.1184 44.5177 41.9236 44.4919 41.7577 44.3995C40.4336 43.6414 38.5043 42.3531 37.1183 40.9671C35.7324 39.5812 34.5221 37.7397 33.8421 36.5002C33.7599 36.3422 33.7366 36.1601 33.7766 35.9866C33.8165 35.8131 33.917 35.6595 34.0601 35.5534L37.0663 33.3216C37.4965 32.9494 37.7743 32.4315 37.8463 31.8671C37.9184 31.3028 37.7796 30.7317 37.4567 30.2633C35.9991 28.1291 34.3008 25.4157 31.838 23.6166C31.5195 23.3877 31.1473 23.245 30.7574 23.2023C30.3675 23.1595 29.9732 23.2182 29.6127 23.3726C26.6195 24.6544 24.0298 27.9404 24.1534 31.3207C24.2347 33.5395 25.1034 39.8219 31.6818 46.4036Z" fill="white" fill-opacity="0.7"/>
</svg>
