<svg width="70" height="70" viewBox="0 0 70 70" fill="none" xmlns="http://www.w3.org/2000/svg">
<path d="M22.75 5.8335H47.25C56.5833 5.8335 64.1666 13.4168 64.1666 22.7502V47.2502C64.1666 51.7367 62.3844 56.0396 59.2119 59.2121C56.0394 62.3845 51.7366 64.1668 47.25 64.1668H22.75C13.4166 64.1668 5.83331 56.5835 5.83331 47.2502V22.7502C5.83331 18.2636 7.6156 13.9608 10.7881 10.7883C13.9606 7.61578 18.2634 5.8335 22.75 5.8335ZM22.1666 11.6668C19.3819 11.6668 16.7112 12.7731 14.742 14.7422C12.7729 16.7113 11.6666 19.3821 11.6666 22.1668V47.8335C11.6666 53.6377 16.3625 58.3335 22.1666 58.3335H47.8333C50.6181 58.3335 53.2888 57.2272 55.2579 55.2581C57.2271 53.289 58.3333 50.6183 58.3333 47.8335V22.1668C58.3333 16.3627 53.6375 11.6668 47.8333 11.6668H22.1666ZM50.3125 16.0418C51.2794 16.0418 52.2067 16.4259 52.8905 17.1097C53.5742 17.7934 53.9583 18.7207 53.9583 19.6877C53.9583 20.6546 53.5742 21.5819 52.8905 22.2657C52.2067 22.9494 51.2794 23.3335 50.3125 23.3335C49.3455 23.3335 48.4182 22.9494 47.7345 22.2657C47.0508 21.5819 46.6666 20.6546 46.6666 19.6877C46.6666 18.7207 47.0508 17.7934 47.7345 17.1097C48.4182 16.4259 49.3455 16.0418 50.3125 16.0418ZM35 20.4168C38.8677 20.4168 42.577 21.9533 45.312 24.6882C48.0469 27.4231 49.5833 31.1324 49.5833 35.0002C49.5833 38.8679 48.0469 42.5772 45.312 45.3121C42.577 48.047 38.8677 49.5835 35 49.5835C31.1322 49.5835 27.4229 48.047 24.688 45.3121C21.9531 42.5772 20.4166 38.8679 20.4166 35.0002C20.4166 31.1324 21.9531 27.4231 24.688 24.6882C27.4229 21.9533 31.1322 20.4168 35 20.4168ZM35 26.2502C32.6793 26.2502 30.4537 27.172 28.8128 28.813C27.1719 30.4539 26.25 32.6795 26.25 35.0002C26.25 37.3208 27.1719 39.5464 28.8128 41.1873C30.4537 42.8283 32.6793 43.7502 35 43.7502C37.3206 43.7502 39.5462 42.8283 41.1872 41.1873C42.8281 39.5464 43.75 37.3208 43.75 35.0002C43.75 32.6795 42.8281 30.4539 41.1872 28.813C39.5462 27.172 37.3206 26.2502 35 26.2502Z" fill="white"/>
</svg>
