<svg width="79" height="79" viewBox="0 0 79 79" fill="none" xmlns="http://www.w3.org/2000/svg">
<path d="M32.5333 6.50671H45.5466C47.2723 6.50671 48.9273 7.19224 50.1475 8.41247C51.3677 9.63271 52.0533 11.2877 52.0533 13.0134V19.52H65.0666C66.7923 19.52 68.4473 20.2056 69.6675 21.4258C70.8877 22.646 71.5733 24.301 71.5733 26.0267V61.8134C71.5733 63.5391 70.8877 65.1941 69.6675 66.4143C68.4473 67.6345 66.7923 68.32 65.0666 68.32H13.0133C11.2876 68.32 9.63259 67.6345 8.41235 66.4143C7.19211 65.1941 6.50659 63.5391 6.50659 61.8134V26.0267C6.50659 22.4155 9.40206 19.52 13.0133 19.52H26.0266V13.0134C26.0266 9.40218 28.9221 6.50671 32.5333 6.50671ZM45.5466 19.52V13.0134H32.5333V19.52H45.5466Z" fill="white" fill-opacity="0.7"/>
</svg>
